# xmcd
#
# Track frame offsets:
#	150
#	16497
#	35415
#
# Disc length: 787 seconds
#
# Revision: 1
# Processed by: cddbd v1.5.2PL0 Copyright (c) Steve Scherf et al.
# Submitted via: audiograbber 1.83.01
#
DISCID=1b031103
DTITLE=Girls Aloud - Biology (Single)
DYEAR=2005
DGENRE=Pop
TTITLE0=Biology
TTITLE1=Nobody But You
TTITLE2=Biology - Tony Lamezma Remix
EXTD=
EXTT0=
EXTT1=
EXTT2=
PLAYORDER=
